<svg version="1.1" id="Layer_1" xmlns="http://www.w3.org/2000/svg" xmlns:xlink="http://www.w3.org/1999/xlink" x="0px" y="0px"
	 width="100%" viewBox="0 0 1241 323" enable-background="new 0 0 1241 323" xml:space="preserve">
<path fill="#FDFDFE" opacity="1.000000" stroke="none" 
	d="
M796.000000,324.000000 
	C530.666687,324.000000 265.833344,324.000000 1.000000,324.000000 
	C1.000000,216.333328 1.000000,108.666664 1.000000,1.000000 
	C414.666656,1.000000 828.333313,1.000000 1242.000000,1.000000 
	C1242.000000,108.666664 1242.000000,216.333328 1242.000000,324.000000 
	C1093.500000,324.000000 945.000000,324.000000 796.000000,324.000000 
M516.333252,286.296600 
	C516.883301,286.182068 517.433289,286.067535 518.780334,286.095123 
	C529.909119,284.453918 536.166870,276.693329 534.944336,266.049286 
	C533.869690,256.693115 524.933838,250.349091 513.997864,251.178284 
	C504.473175,251.900467 497.558594,259.691589 497.835419,269.389618 
	C498.110016,279.010101 505.761353,285.990784 516.333252,286.296600 
M307.574066,237.654678 
	C307.039764,237.626785 306.505463,237.598892 305.081848,237.280518 
	C297.852570,237.280518 290.623322,237.280518 283.045868,237.280518 
	C283.045868,253.248093 283.045868,268.625885 282.991028,284.622711 
	C283.330292,284.800262 283.669586,284.977814 284.875763,285.362946 
	C293.959991,284.900757 303.275726,285.541260 312.069427,283.695160 
	C322.878845,281.425812 328.568054,270.059479 327.168060,257.187286 
	C326.074432,247.132324 318.145233,239.213806 307.574066,237.654678 
M328.902649,111.742897 
	C330.532013,111.619072 332.161377,111.495247 334.484863,111.743782 
	C335.001282,111.787842 335.517700,111.831902 336.580353,112.322067 
	C343.219543,113.904129 347.335693,118.337273 349.174286,124.590111 
	C350.520721,129.169098 351.495544,134.015396 351.616882,138.768570 
	C352.084442,157.088043 352.238068,175.417755 352.275696,193.744125 
	C352.283630,197.609467 353.386688,199.191437 357.392456,199.003113 
	C362.712646,198.753036 368.076447,198.653534 373.379578,199.050278 
	C378.152405,199.407349 379.209137,197.576477 379.198090,193.061996 
	C379.149445,173.240677 379.289948,153.412964 379.843140,133.600983 
	C379.958679,129.461441 381.485962,125.044754 383.458771,121.339340 
	C387.607025,113.547867 394.858307,111.132072 403.308899,111.890144 
	C411.505798,112.625481 417.012177,117.026955 419.098389,124.918777 
	C420.318359,129.533813 420.963043,134.423172 421.025757,139.200165 
	C421.266357,157.526993 421.251953,175.858856 421.122467,194.187378 
	C421.096649,197.839569 422.090363,199.293564 425.905182,199.105042 
	C431.557617,198.825714 437.252350,198.708496 442.892456,199.079391 
	C447.909912,199.409332 449.085052,197.311310 449.010193,192.690781 
	C448.740204,176.031052 448.990295,159.362244 448.660156,142.704453 
	C448.515442,135.403442 447.840973,128.058701 446.709503,120.843216 
	C444.620056,107.518890 438.043915,97.014214 425.237701,91.631317 
	C414.312256,87.038979 402.926788,86.916199 391.469055,89.892746 
	C382.900482,92.118713 376.536835,97.455673 371.064575,104.514206 
	C369.869324,103.046562 368.964020,101.899231 368.021637,100.783264 
	C355.092438,85.472206 328.589264,83.507088 314.009766,97.065895 
	C312.386475,98.808250 310.763153,100.550613 308.196014,103.306038 
	C308.196014,100.107155 308.058441,98.164825 308.224243,96.248734 
	C308.584991,92.079903 306.700989,90.715851 302.667236,90.901619 
	C297.027252,91.161354 291.364624,91.066444 285.715729,90.940681 
	C282.694458,90.873413 281.584198,92.141304 281.588226,95.085983 
	C281.633636,128.331223 281.644501,161.576584 281.583191,194.821762 
	C281.576965,198.197037 283.104584,199.071960 286.181580,199.000320 
	C292.328369,198.857162 298.490204,198.777039 304.628876,199.050705 
	C309.427673,199.264618 310.518829,197.130951 309.649536,192.075653 
	C309.567352,176.055878 309.485168,160.036118 309.680115,143.360306 
	C309.591980,142.902954 309.503845,142.445587 309.667969,141.145889 
	C309.648132,139.100021 309.628296,137.054169 309.890289,134.245407 
	C309.950470,133.170441 310.010681,132.095490 310.441345,130.394226 
	C310.445221,129.917282 310.449097,129.440323 310.840607,128.425995 
	C313.120056,119.250191 318.873627,113.630096 328.902649,111.742897 
M219.379852,93.036308 
	C204.505447,41.770916 151.191391,7.414112 93.138283,21.576292 
	C44.440941,33.456116 13.631964,78.830437 14.705577,122.490913 
	C15.442776,152.470490 14.824722,182.482590 14.884351,212.480011 
	C14.909127,224.944504 17.380100,236.994659 22.106558,248.494141 
	C41.084579,294.667694 89.303032,321.195831 138.265991,311.822205 
	C169.928253,305.760681 194.008377,288.422852 210.275330,260.470581 
	C210.275330,260.470581 210.122528,260.259521 210.708572,259.750824 
	C210.835800,259.254486 210.963028,258.758118 211.703949,257.935089 
	C213.562012,253.618729 215.420074,249.302368 217.663574,244.741867 
	C217.663574,244.741867 217.661346,244.285583 218.086014,243.762711 
	C219.257095,239.168320 220.428177,234.573944 221.971207,229.376984 
	C221.955887,228.912689 221.940567,228.448380 222.239731,227.282349 
	C222.668137,221.982224 223.453003,216.682968 223.466171,211.381805 
	C223.542755,180.575684 223.449249,149.769073 223.371368,118.962738 
	C223.365555,116.659294 223.032547,114.356667 223.003418,111.364059 
	C222.895264,110.911491 222.787125,110.458916 222.874451,109.195984 
	C222.397522,106.792343 221.920609,104.388710 221.517532,101.435478 
	C221.399475,101.293251 221.281403,101.151024 221.300873,100.334747 
	C220.689178,98.160988 220.077484,95.987221 219.379852,93.036308 
M811.746094,199.747726 
	C825.445496,201.486099 839.027100,201.437927 852.071167,196.202103 
	C867.785461,189.894440 877.268372,178.457581 878.783081,161.380707 
	C880.448181,142.607010 872.196167,129.188843 855.173767,121.408562 
	C847.938416,118.101593 840.278992,115.734123 832.879028,112.772766 
	C823.647278,109.078392 814.011475,106.048096 805.421936,101.189774 
	C796.417664,96.096901 796.243103,83.138557 804.023438,76.398438 
	C813.926331,67.819511 840.954956,68.042381 845.847168,86.633072 
	C846.148132,87.776917 847.600769,89.438507 848.552490,89.462288 
	C857.304871,89.680962 866.065002,89.591118 875.318298,89.591118 
	C874.360718,73.955750 867.847229,62.209934 854.739441,55.181061 
	C834.919312,44.552784 814.144714,44.264938 793.479614,52.671314 
	C778.776855,58.652298 770.639038,70.113503 769.348511,85.966789 
	C767.968018,102.924805 773.907776,116.613449 789.433594,124.603714 
	C798.249817,129.140900 807.804077,132.234894 816.989929,136.065323 
	C825.850891,139.760284 835.209961,142.661362 843.356934,147.562302 
	C852.669495,153.164398 851.862854,166.440475 842.839722,172.296616 
	C825.201660,183.743958 800.204041,174.588608 794.329773,154.677505 
	C793.925781,153.308090 791.863098,151.542755 790.508972,151.486938 
	C783.358765,151.192230 776.187561,151.456543 769.025391,151.375076 
	C766.413269,151.345367 765.111328,152.368073 765.692017,154.912506 
	C767.084656,161.015366 767.586609,167.630905 770.374756,173.047836 
	C778.745361,189.310455 793.378967,196.845459 811.746094,199.747726 
M584.285339,152.122269 
	C584.982666,156.387360 585.375061,160.729187 586.426086,164.905273 
	C594.155457,195.616333 630.287537,211.360901 656.439941,195.242523 
	C660.774902,192.570816 664.134644,188.316895 668.183899,184.573303 
	C668.494141,187.893875 668.860962,191.180283 669.091980,194.476227 
	C669.313477,197.638031 670.523865,199.262131 674.076416,199.046234 
	C678.723755,198.763733 683.401550,198.995758 688.066284,198.985107 
	C694.654907,198.970062 694.680176,198.961700 694.675293,192.292145 
	C694.648865,156.140747 694.610535,119.989342 694.572449,83.837936 
	C694.561584,73.509354 694.433899,63.179379 694.573303,52.852921 
	C694.626282,48.930538 693.089355,47.528233 689.232727,47.678768 
	C683.576965,47.899529 677.895569,47.951836 672.245483,47.668865 
	C667.944763,47.453472 666.905945,49.229641 666.976013,53.251186 
	C667.199524,66.075325 667.071899,78.905586 667.078735,91.733482 
	C667.080811,95.625168 667.079102,99.516853 667.079102,103.408539 
	C659.693909,94.489349 650.592407,89.848320 639.775818,88.562431 
	C616.924072,85.845764 594.973816,95.661186 587.265015,120.093933 
	C584.059265,130.254776 583.346680,140.647003 584.285339,152.122269 
M535.499939,153.270203 
	C547.583862,153.270203 559.667786,153.270203 571.611084,153.270203 
	C571.886414,151.911255 572.062561,151.433685 572.067688,150.954285 
	C572.104736,147.455490 572.306641,143.943848 572.088318,140.459320 
	C570.712097,118.491722 561.749573,100.959419 540.552856,92.543724 
	C518.686157,83.862007 497.820282,86.802673 480.240234,103.172554 
	C463.726410,118.549614 459.538300,147.177017 468.819397,169.581741 
	C483.792175,205.726440 536.623230,209.452591 559.047058,186.385193 
	C564.743896,180.524780 568.927856,173.750137 570.429749,164.917862 
	C562.801331,164.917862 555.816406,165.095627 548.846375,164.849930 
	C544.790222,164.706940 541.660583,165.123444 539.434265,169.276901 
	C538.306091,171.381592 535.593506,173.061462 533.227051,174.005478 
	C522.141602,178.427490 511.334137,177.637726 501.415710,170.795593 
	C495.562866,166.758072 493.459778,160.621796 492.917114,153.271622 
	C507.218262,153.271622 520.859070,153.271622 535.499939,153.270203 
M889.427856,109.193550 
	C900.697998,138.565872 911.973267,167.936279 923.219727,197.317673 
	C923.673035,198.501862 924.266113,199.849869 924.096863,201.020828 
	C922.687927,210.771240 914.049316,218.462280 904.159546,218.904358 
	C901.997375,219.001007 899.824097,219.018753 897.662903,218.920273 
	C895.182129,218.807205 893.985657,219.693253 894.038086,222.355240 
	C894.146301,227.852493 893.935913,233.358963 894.171997,238.848099 
	C894.216370,239.879089 895.670349,241.656113 896.573059,241.721649 
	C908.800903,242.609192 920.935547,242.897507 931.448425,234.811035 
	C939.547791,228.580917 944.491821,220.047150 948.132385,210.923264 
	C963.536377,172.318283 978.587036,133.572296 993.727783,94.862602 
	C994.122131,93.854294 994.069702,92.671219 994.326050,90.860504 
	C984.645630,90.860504 975.369751,90.752716 966.104431,91.015671 
	C965.101196,91.044144 963.687012,93.069374 963.259277,94.420372 
	C957.078979,113.939217 951.059021,133.508728 944.943054,153.048080 
	C943.208618,158.589096 941.289612,164.072327 939.005920,170.931564 
	C938.021729,168.120178 937.558777,166.903198 937.167236,165.663696 
	C929.797119,142.332062 922.381165,119.014610 915.129761,95.646103 
	C914.024475,92.084419 912.340149,90.633179 908.455383,90.825958 
	C901.639587,91.164169 894.794067,90.875603 887.961548,90.924469 
	C886.424927,90.935455 884.890625,91.254654 882.720947,91.505219 
	C885.040222,97.683800 887.069519,103.089806 889.427856,109.193550 
M1105.865234,184.484619 
	C1105.807983,169.996811 1105.932007,155.505005 1105.613403,141.022949 
	C1105.463989,134.227859 1105.021606,127.344307 1103.747192,120.685478 
	C1098.512573,93.334282 1073.467407,83.442131 1051.108276,89.843132 
	C1044.017578,91.873062 1038.652466,96.194283 1033.737793,102.777267 
	C1033.532715,99.787987 1033.183472,97.970421 1033.331421,96.194275 
	C1033.676270,92.053024 1031.958252,90.587524 1027.835693,90.783928 
	C1022.020264,91.060989 1016.180298,90.935219 1010.354004,90.821068 
	C1007.343445,90.762085 1005.815186,91.517113 1005.828003,95.006775 
	C1005.949890,128.312317 1005.952942,161.618423 1005.904480,194.924240 
	C1005.900085,197.938812 1006.960388,199.088058 1009.984436,199.020920 
	C1015.976196,198.887878 1021.973572,199.016403 1027.968628,199.014816 
	C1034.267944,199.013153 1034.201660,199.001465 1034.244263,192.588058 
	C1034.376953,172.608612 1034.356079,152.624741 1034.815063,132.652237 
	C1035.059937,122.001694 1042.113892,114.168213 1052.033447,112.285667 
	C1061.964722,110.400894 1071.363525,114.798096 1074.895142,124.036789 
	C1076.684448,128.717850 1077.239502,134.081482 1077.345215,139.157516 
	C1077.726685,157.468948 1077.754761,175.789383 1077.730957,194.106201 
	C1077.726318,197.725632 1078.757324,199.349854 1082.570679,199.049591 
	C1085.881836,198.788834 1089.227783,198.968521 1092.558350,198.953766 
	C1105.869873,198.894791 1105.869873,198.894821 1105.865234,184.484619 
M1170.721558,177.510788 
	C1160.279053,176.380341 1153.471069,170.680466 1150.714722,160.671127 
	C1147.790039,150.049728 1147.752563,139.234558 1151.024048,128.672867 
	C1153.942017,119.252716 1163.255005,112.710541 1172.928101,112.605988 
	C1185.327026,112.471977 1191.562500,116.656227 1195.817261,127.790207 
	C1196.213135,128.826218 1197.318604,130.338776 1198.122437,130.356293 
	C1206.687012,130.543015 1215.257324,130.472260 1224.728149,130.472260 
	C1223.419067,125.622490 1222.771606,121.669189 1221.304077,118.048325 
	C1213.683105,99.245728 1198.888184,89.774048 1179.335938,88.326408 
	C1158.320068,86.770401 1140.561768,93.612740 1129.026978,112.434509 
	C1121.072266,125.414581 1119.757446,139.895432 1121.515747,154.470123 
	C1123.986816,174.951309 1133.822266,191.010864 1154.223511,197.657761 
	C1175.294434,204.522919 1195.506958,202.574722 1212.226074,186.221085 
	C1219.413574,179.190582 1223.081299,170.223694 1223.944214,159.538101 
	C1214.865723,159.538101 1206.399292,159.465195 1197.937866,159.641861 
	C1197.010254,159.661209 1195.574463,160.953323 1195.283081,161.926941 
	C1191.738281,173.777100 1183.238770,177.966827 1170.721558,177.510788 
M720.224304,158.499985 
	C720.231018,170.491653 720.304810,182.483902 720.198914,194.474579 
	C720.171326,197.601639 721.121338,199.088211 724.459167,199.020508 
	C730.951721,198.888809 737.451355,198.900986 743.943604,199.050308 
	C746.881714,199.117874 747.685364,197.739502 747.678955,195.121109 
	C747.597412,161.644699 747.523621,128.168167 747.545105,94.691719 
	C747.547180,91.459625 746.056580,90.775948 743.254578,90.830154 
	C737.260925,90.946129 731.255005,91.064255 725.270752,90.801872 
	C721.246094,90.625404 720.190247,92.184570 720.216614,96.044342 
	C720.356384,116.528618 720.248230,137.014587 720.224304,158.499985 
M633.857544,285.639160 
	C635.718689,284.587769 637.579773,283.536377 639.323364,282.551361 
	C641.804871,287.652161 645.922546,284.898132 649.818054,285.200134 
	C649.818054,270.533844 649.833496,256.261780 649.811523,241.989777 
	C649.800659,234.952942 649.768677,234.940201 642.572693,235.278519 
	C641.783691,235.315613 641.006470,235.604034 639.722656,235.885941 
	C639.722656,242.180908 639.722656,248.377167 639.722656,254.357300 
	C636.024597,253.187668 632.835205,251.582611 629.520325,251.257751 
	C623.118469,250.630371 618.117004,253.622818 615.217224,259.303284 
	C611.635437,266.319641 611.572144,273.496368 616.307922,280.088226 
	C620.456421,285.862640 626.336792,287.375366 633.857544,285.639160 
M483.688538,284.495209 
	C491.896454,278.843170 494.842194,269.038849 490.266235,260.451202 
	C488.639099,257.397552 485.871033,254.424454 482.877869,252.740219 
	C477.324219,249.615173 471.474701,250.995163 465.259949,254.909561 
	C465.259949,247.905945 465.259949,242.006363 465.259949,235.949844 
	C461.641876,235.949844 458.752350,235.949844 455.798462,235.949844 
	C455.798462,252.657745 455.798462,268.907654 455.798462,286.128052 
	C459.920868,285.474670 463.503967,284.906769 468.346466,284.139252 
	C471.940918,286.822296 477.326111,287.137817 483.688538,284.495209 
M676.167725,254.501740 
	C676.167725,264.742340 676.167725,274.982941 676.167725,285.251953 
	C679.928894,285.251953 683.003418,285.251953 686.610474,285.251953 
	C686.610474,280.618256 686.798462,276.321625 686.553101,272.049866 
	C686.342102,268.376160 687.486633,267.018005 691.360718,267.277222 
	C695.301758,267.540894 699.388855,267.402435 703.253296,266.638000 
	C710.063843,265.290833 713.746521,260.436310 713.998169,253.523880 
	C714.344177,244.020111 708.924316,237.869461 699.028503,237.211746 
	C692.563416,236.782028 686.050903,237.108551 679.562683,236.962067 
	C676.941589,236.902878 676.044128,237.970032 676.126892,240.522171 
	C676.266968,244.844940 676.169434,249.175400 676.167725,254.501740 
M422.175568,242.981537 
	C422.797394,234.543259 421.245880,233.440598 412.707153,236.087418 
	C412.707153,252.526917 412.707153,268.912018 412.707153,285.274323 
	C416.100800,285.274323 418.988953,285.274323 422.567352,285.274323 
	C422.567352,278.887604 422.340393,272.902008 422.640991,266.942993 
	C422.870941,262.384094 426.033386,259.643097 430.030792,259.820343 
	C434.725555,260.028534 436.266113,262.923981 436.263641,267.164337 
	C436.261597,270.658844 436.385162,274.153656 436.369354,277.647949 
	C436.330475,286.245056 436.311432,286.249146 445.122925,285.503357 
	C445.407227,285.479309 445.668182,285.179626 445.832092,285.076416 
	C445.832092,277.051056 446.237274,269.081543 445.693024,261.177399 
	C445.315216,255.690704 441.335999,251.764984 435.810913,251.655014 
	C431.349915,251.566254 426.852356,253.315613 422.159454,254.293625 
	C422.159454,251.441620 422.159454,247.660110 422.175568,242.981537 
M754.675171,255.909241 
	C753.989563,254.456207 753.401001,251.823227 752.601318,251.757462 
	C749.393982,251.493698 745.443054,250.015396 743.692688,254.602707 
	C736.080261,249.352600 728.236328,249.840790 722.473572,255.893463 
	C716.559021,262.105530 715.778015,273.429382 721.287292,280.325653 
	C727.409973,287.989838 735.738525,288.195587 743.149170,283.526703 
	C746.773560,286.630096 750.561951,285.550507 754.666626,284.954010 
	C754.666626,275.421478 754.666626,266.122253 754.675171,255.909241 
M369.929504,271.492920 
	C369.929504,265.070343 369.929504,258.647766 369.929504,251.246765 
	C365.666107,252.043655 362.340942,252.665176 357.648285,253.542297 
	C351.098633,249.377502 342.983185,250.000397 337.685547,256.219421 
	C331.684113,263.264679 331.611633,274.119659 337.519501,281.088898 
	C342.797272,287.314819 350.675629,287.916473 358.889038,284.207794 
	C362.449371,284.650757 366.009705,285.093719 369.931946,285.581726 
	C369.931946,280.442261 369.931946,276.466003 369.929504,271.492920 
M540.973511,272.027557 
	C543.680481,286.053406 556.904175,289.635681 566.600647,284.526031 
	C570.097656,284.895386 573.594666,285.264709 577.156189,285.640869 
	C577.156189,273.849121 577.156189,263.100891 577.156189,251.387192 
	C573.096802,252.078934 569.576660,252.678772 565.158691,253.431610 
	C563.349792,252.912781 560.280457,251.515656 557.109253,251.222992 
	C548.710266,250.447891 539.269226,258.272827 540.973511,272.027557 
M744.400024,52.092697 
	C735.818665,45.253899 725.257385,46.518867 719.698914,55.051239 
	C714.675476,62.762314 717.331665,73.450142 725.394775,77.969955 
	C732.256409,81.816292 740.731567,80.315521 745.745544,74.366325 
	C751.285156,67.793274 750.999817,60.138374 744.400024,52.092697 
M809.787781,280.671631 
	C819.942139,289.327118 835.087280,288.274139 838.781555,278.655792 
	C833.937500,275.282196 833.937500,275.282166 828.551086,277.516144 
	C822.945190,279.841125 817.841675,277.907867 815.992126,272.151733 
	C824.388916,272.151733 832.590515,272.151733 840.640198,272.151733 
	C842.602234,261.855682 838.456238,254.399277 829.875305,251.863785 
	C821.873962,249.499557 813.508057,251.920059 809.133667,257.865021 
	C804.030701,264.800079 804.092407,272.180695 809.787781,280.671631 
M774.550659,266.550415 
	C775.603333,262.174896 777.861389,259.138733 782.873352,259.907379 
	C787.974060,260.689606 788.148254,264.644684 788.112244,268.668793 
	C788.063599,274.101074 788.100159,279.534180 788.100159,285.141357 
	C791.732544,285.141357 794.633789,285.141357 797.772034,285.141357 
	C797.772034,277.474823 798.188171,270.141266 797.670349,262.874237 
	C796.968384,253.022598 787.477783,248.125214 778.645813,252.662750 
	C777.361694,253.322510 776.211975,254.243835 774.980408,255.057098 
	C772.297729,249.719437 768.152832,252.262314 764.359253,252.255203 
	C764.359253,263.476318 764.359253,274.219940 764.359253,285.198486 
	C767.723999,285.198486 770.778137,285.198486 774.434448,285.198486 
	C774.434448,279.015259 774.434448,273.204224 774.550659,266.550415 
M236.722427,25.100187 
	C235.048340,18.319122 231.025406,13.829814 223.967468,12.743248 
	C217.847778,11.801125 212.785660,13.907573 209.259491,19.104795 
	C205.450668,24.718599 205.746964,32.108940 209.840118,37.282291 
	C213.811996,42.302345 220.457077,44.286518 226.410828,42.230183 
	C233.451416,39.798473 236.886536,34.409760 236.722427,25.100187 
M404.637634,257.439087 
	C401.936798,250.404221 389.183899,249.549057 383.430664,252.673508 
	C379.777527,254.657425 377.683655,257.521332 377.795074,261.888000 
	C377.902374,266.092834 380.054108,268.819794 383.729980,270.273071 
	C386.804169,271.488464 390.135620,272.055542 393.203186,273.284180 
	C394.330139,273.735565 395.026886,275.260956 395.919891,276.296417 
	C394.771912,277.084961 393.473877,278.690918 392.503326,278.512817 
	C389.255737,277.916718 386.125183,276.682770 382.037170,275.408661 
	C380.817932,276.236786 378.698212,277.676483 376.581268,279.114319 
	C381.033478,285.647522 390.048523,288.093506 397.853485,285.313019 
	C402.566742,283.633911 405.457550,280.359619 405.550629,275.350342 
	C405.647583,270.133514 402.433350,267.175293 397.616119,265.829010 
	C394.896912,265.069061 392.098419,264.554626 389.444397,263.620605 
	C388.540314,263.302429 387.253937,261.867706 387.403656,261.247925 
	C387.660767,260.183838 388.794647,258.751404 389.766571,258.568451 
	C391.464172,258.248810 393.964691,258.075287 394.990662,259.044830 
	C398.739075,262.586975 401.452698,260.679718 404.637634,257.439087 
M858.832153,272.479218 
	C858.832153,260.225037 858.832153,247.970840 858.832153,235.522583 
	C855.219055,235.522583 852.198730,235.522583 849.136353,235.522583 
	C849.136353,252.328751 849.136353,268.704712 849.136353,285.596802 
	C852.487854,285.445312 855.497314,285.309265 858.828735,285.158691 
	C858.828735,280.758850 858.828735,277.113159 858.832153,272.479218 
M587.008972,277.427063 
	C587.008972,280.025940 587.008972,282.624817 587.008972,285.246399 
	C590.590210,285.246399 593.502075,285.246399 596.966125,285.246399 
	C596.966125,279.418060 596.895203,273.958801 596.985413,268.502167 
	C597.081848,262.664246 599.811523,260.084991 605.686462,260.056946 
	C606.808350,260.051575 607.930176,260.056152 610.157837,260.056152 
	C609.453186,256.843018 608.861084,254.142914 608.268982,251.442749 
	C604.608948,252.335922 600.948853,253.229080 596.976868,254.198364 
	C595.652710,251.566177 594.183838,251.163651 587.007446,252.675339 
	C587.007446,260.536316 587.007446,268.490570 587.008972,277.427063 
z"/>
<path fill="#030A7E" opacity="1.000000" stroke="none" 
	d="
M222.678986,110.006348 
	C222.787125,110.458916 222.895264,110.911491 222.659775,112.020081 
	C222.211319,114.490921 222.016342,116.305679 222.015152,118.120560 
	C221.995926,147.392044 222.039597,176.663635 221.959061,205.934891 
	C221.947281,210.217728 221.179291,214.496368 221.119980,218.781921 
	C221.077576,221.845001 221.635300,224.916397 221.925262,227.984085 
	C221.940567,228.448380 221.955887,228.912689 221.437775,229.758026 
	C219.700043,233.676987 218.389557,237.184372 217.357162,240.771774 
	C217.053619,241.826508 217.538040,243.108002 217.661346,244.285583 
	C217.661346,244.285583 217.663574,244.741867 217.094788,244.914383 
	C214.714081,249.478531 212.902176,253.870163 211.090271,258.261780 
	C210.963028,258.758118 210.835800,259.254486 210.425674,260.015869 
	C210.142776,260.280945 210.103806,260.302734 210.103806,260.302734 
	C194.008377,288.422852 169.928253,305.760681 138.265991,311.822205 
	C89.303032,321.195831 41.084579,294.667694 22.106558,248.494141 
	C17.380100,236.994659 14.909127,224.944504 14.884351,212.480011 
	C14.824722,182.482590 15.442776,152.470490 14.705577,122.490913 
	C13.631964,78.830437 44.440941,33.456116 93.138283,21.576292 
	C151.191391,7.414112 204.505447,41.770916 219.105774,93.598022 
	C219.608917,96.442749 220.386139,98.725769 221.163345,101.008797 
	C221.281403,101.151024 221.399475,101.293251 221.210419,101.827927 
	C221.495193,104.815697 222.087082,107.411018 222.678986,110.006348 
M64.508568,186.123367 
	C73.334709,186.098770 82.160927,186.039215 90.986954,186.061081 
	C97.542290,186.077332 99.310730,187.792923 99.341209,194.330780 
	C99.399445,206.820740 99.309822,219.311401 99.369476,231.801346 
	C99.407799,239.823608 102.521912,242.839874 110.666153,242.885239 
	C116.494621,242.917694 122.324371,242.901764 128.152237,242.817154 
	C135.937057,242.704163 138.578049,240.072601 138.615326,232.193954 
	C138.675217,219.537521 138.597992,206.880493 138.603989,194.223724 
	C138.606918,188.034058 140.438049,186.161606 146.606003,186.152893 
	C159.096283,186.135254 171.586975,186.240479 184.076813,186.170273 
	C190.690323,186.133102 193.881516,182.958878 194.017609,176.384460 
	C194.145126,170.225082 194.132721,164.060593 194.058899,157.899811 
	C193.960098,149.652939 190.769745,146.436569 182.535645,146.391571 
	C170.545410,146.326019 158.554321,146.425644 146.563843,146.384384 
	C140.352203,146.363022 138.637451,144.557861 138.628265,138.273956 
	C138.610504,126.116798 138.693161,113.958900 138.582077,101.802696 
	C138.512299,94.166687 135.475494,91.172371 128.014267,91.057320 
	C122.019928,90.964890 116.023430,90.913681 110.028839,90.962212 
	C102.505516,91.023109 99.371361,94.106331 99.317375,101.539101 
	C99.229073,113.695877 99.251877,125.853424 99.193970,138.010483 
	C99.162979,144.517120 97.420326,146.257889 90.898094,146.277817 
	C78.574471,146.315460 66.249680,146.216324 53.927425,146.355927 
	C47.492905,146.428818 44.142372,149.864243 44.031250,156.298523 
	C43.913372,163.123840 43.881630,169.957504 44.084877,176.779419 
	C44.262566,182.743332 47.562267,185.911758 53.522720,186.148727 
	C56.847572,186.280945 60.183010,186.147095 64.508568,186.123367 
M111.424469,57.225571 
	C115.874359,59.819263 120.461586,60.367764 125.235222,58.154922 
	C131.089920,55.440956 134.388351,49.321243 133.373108,43.054161 
	C132.345779,36.712437 127.331894,31.708429 121.192253,30.897303 
	C114.701202,30.039749 108.243774,33.652988 105.790825,39.515144 
	C103.224281,45.648754 105.114540,52.109055 111.424469,57.225571 
z"/>
<path fill="#070E7F" opacity="1.000000" stroke="none" 
	d="
M811.331909,199.634232 
	C793.378967,196.845459 778.745361,189.310455 770.374756,173.047836 
	C767.586609,167.630905 767.084656,161.015366 765.692017,154.912506 
	C765.111328,152.368073 766.413269,151.345367 769.025391,151.375076 
	C776.187561,151.456543 783.358765,151.192230 790.508972,151.486938 
	C791.863098,151.542755 793.925781,153.308090 794.329773,154.677505 
	C800.204041,174.588608 825.201660,183.743958 842.839722,172.296616 
	C851.862854,166.440475 852.669495,153.164398 843.356934,147.562302 
	C835.209961,142.661362 825.850891,139.760284 816.989929,136.065323 
	C807.804077,132.234894 798.249817,129.140900 789.433594,124.603714 
	C773.907776,116.613449 767.968018,102.924805 769.348511,85.966789 
	C770.639038,70.113503 778.776855,58.652298 793.479614,52.671314 
	C814.144714,44.264938 834.919312,44.552784 854.739441,55.181061 
	C867.847229,62.209934 874.360718,73.955750 875.318298,89.591118 
	C866.065002,89.591118 857.304871,89.680962 848.552490,89.462288 
	C847.600769,89.438507 846.148132,87.776917 845.847168,86.633072 
	C840.954956,68.042381 813.926331,67.819511 804.023438,76.398438 
	C796.243103,83.138557 796.417664,96.096901 805.421936,101.189774 
	C814.011475,106.048096 823.647278,109.078392 832.879028,112.772766 
	C840.278992,115.734123 847.938416,118.101593 855.173767,121.408562 
	C872.196167,129.188843 880.448181,142.607010 878.783081,161.380707 
	C877.268372,178.457581 867.785461,189.894440 852.071167,196.202103 
	C839.027100,201.437927 825.445496,201.486099 811.331909,199.634232 
z"/>
<path fill="#070E7F" opacity="1.000000" stroke="none" 
	d="
M584.202332,151.660965 
	C583.346680,140.647003 584.059265,130.254776 587.265015,120.093933 
	C594.973816,95.661186 616.924072,85.845764 639.775818,88.562431 
	C650.592407,89.848320 659.693909,94.489349 667.079102,103.408539 
	C667.079102,99.516853 667.080811,95.625168 667.078735,91.733482 
	C667.071899,78.905586 667.199524,66.075325 666.976013,53.251186 
	C666.905945,49.229641 667.944763,47.453472 672.245483,47.668865 
	C677.895569,47.951836 683.576965,47.899529 689.232727,47.678768 
	C693.089355,47.528233 694.626282,48.930538 694.573303,52.852921 
	C694.433899,63.179379 694.561584,73.509354 694.572449,83.837936 
	C694.610535,119.989342 694.648865,156.140747 694.675293,192.292145 
	C694.680176,198.961700 694.654907,198.970062 688.066284,198.985107 
	C683.401550,198.995758 678.723755,198.763733 674.076416,199.046234 
	C670.523865,199.262131 669.313477,197.638031 669.091980,194.476227 
	C668.860962,191.180283 668.494141,187.893875 668.183899,184.573303 
	C664.134644,188.316895 660.774902,192.570816 656.439941,195.242523 
	C630.287537,211.360901 594.155457,195.616333 586.426086,164.905273 
	C585.375061,160.729187 584.982666,156.387360 584.202332,151.660965 
M623.805725,117.208351 
	C621.797119,119.400528 619.366638,121.336334 617.852234,123.828766 
	C610.878357,135.306259 611.394226,147.709671 614.860535,159.942947 
	C618.316650,172.140213 628.685425,178.483841 642.078491,177.798660 
	C654.760071,177.149887 663.772156,169.735962 665.846741,157.074417 
	C666.935730,150.428055 667.329834,143.415390 666.512329,136.755371 
	C663.815247,114.780876 642.760437,105.016052 623.805725,117.208351 
z"/>
<path fill="#050D7E" opacity="1.000000" stroke="none" 
	d="
M534.999878,153.270905 
	C520.859070,153.271622 507.218262,153.271622 492.917114,153.271622 
	C493.459778,160.621796 495.562866,166.758072 501.415710,170.795593 
	C511.334137,177.637726 522.141602,178.427490 533.227051,174.005478 
	C535.593506,173.061462 538.306091,171.381592 539.434265,169.276901 
	C541.660583,165.123444 544.790222,164.706940 548.846375,164.849930 
	C555.816406,165.095627 562.801331,164.917862 570.429749,164.917862 
	C568.927856,173.750137 564.743896,180.524780 559.047058,186.385193 
	C536.623230,209.452591 483.792175,205.726440 468.819397,169.581741 
	C459.538300,147.177017 463.726410,118.549614 480.240234,103.172554 
	C497.820282,86.802673 518.686157,83.862007 540.552856,92.543724 
	C561.749573,100.959419 570.712097,118.491722 572.088318,140.459320 
	C572.306641,143.943848 572.104736,147.455490 572.067688,150.954285 
	C572.062561,151.433685 571.886414,151.911255 571.611084,153.270203 
	C559.667786,153.270203 547.583862,153.270203 534.999878,153.270905 
M534.443604,133.899933 
	C537.239319,133.899933 540.034973,133.899933 542.816711,133.899933 
	C543.079224,120.500084 532.783936,111.516670 518.020691,111.797440 
	C503.823669,112.067436 492.900085,121.839645 493.686493,133.901505 
	C506.927704,133.901505 520.191956,133.901505 534.443604,133.899933 
z"/>
<path fill="#070E7F" opacity="1.000000" stroke="none" 
	d="
M314.625824,96.819427 
	C328.589264,83.507088 355.092438,85.472206 368.021637,100.783264 
	C368.964020,101.899231 369.869324,103.046562 371.064575,104.514206 
	C376.536835,97.455673 382.900482,92.118713 391.469055,89.892746 
	C402.926788,86.916199 414.312256,87.038979 425.237701,91.631317 
	C438.043915,97.014214 444.620056,107.518890 446.709503,120.843216 
	C447.840973,128.058701 448.515442,135.403442 448.660156,142.704453 
	C448.990295,159.362244 448.740204,176.031052 449.010193,192.690781 
	C449.085052,197.311310 447.909912,199.409332 442.892456,199.079391 
	C437.252350,198.708496 431.557617,198.825714 425.905182,199.105042 
	C422.090363,199.293564 421.096649,197.839569 421.122467,194.187378 
	C421.251953,175.858856 421.266357,157.526993 421.025757,139.200165 
	C420.963043,134.423172 420.318359,129.533813 419.098389,124.918777 
	C417.012177,117.026955 411.505798,112.625481 403.308899,111.890144 
	C394.858307,111.132072 387.607025,113.547867 383.458771,121.339340 
	C381.485962,125.044754 379.958679,129.461441 379.843140,133.600983 
	C379.289948,153.412964 379.149445,173.240677 379.198090,193.061996 
	C379.209137,197.576477 378.152405,199.407349 373.379578,199.050278 
	C368.076447,198.653534 362.712646,198.753036 357.392456,199.003113 
	C353.386688,199.191437 352.283630,197.609467 352.275696,193.744125 
	C352.238068,175.417755 352.084442,157.088043 351.616882,138.768570 
	C351.495544,134.015396 350.520721,129.169098 349.174286,124.590111 
	C347.335693,118.337273 343.219543,113.904129 336.296112,111.722763 
	C334.336792,108.913300 333.107880,105.942749 330.897095,104.645622 
	C325.723694,101.610191 320.079437,99.377281 314.625824,96.819427 
z"/>
<path fill="#070E7F" opacity="1.000000" stroke="none" 
	d="
M889.263367,108.844681 
	C887.069519,103.089806 885.040222,97.683800 882.720947,91.505219 
	C884.890625,91.254654 886.424927,90.935455 887.961548,90.924469 
	C894.794067,90.875603 901.639587,91.164169 908.455383,90.825958 
	C912.340149,90.633179 914.024475,92.084419 915.129761,95.646103 
	C922.381165,119.014610 929.797119,142.332062 937.167236,165.663696 
	C937.558777,166.903198 938.021729,168.120178 939.005920,170.931564 
	C941.289612,164.072327 943.208618,158.589096 944.943054,153.048080 
	C951.059021,133.508728 957.078979,113.939217 963.259277,94.420372 
	C963.687012,93.069374 965.101196,91.044144 966.104431,91.015671 
	C975.369751,90.752716 984.645630,90.860504 994.326050,90.860504 
	C994.069702,92.671219 994.122131,93.854294 993.727783,94.862602 
	C978.587036,133.572296 963.536377,172.318283 948.132385,210.923264 
	C944.491821,220.047150 939.547791,228.580917 931.448425,234.811035 
	C920.935547,242.897507 908.800903,242.609192 896.573059,241.721649 
	C895.670349,241.656113 894.216370,239.879089 894.171997,238.848099 
	C893.935913,233.358963 894.146301,227.852493 894.038086,222.355240 
	C893.985657,219.693253 895.182129,218.807205 897.662903,218.920273 
	C899.824097,219.018753 901.997375,219.001007 904.159546,218.904358 
	C914.049316,218.462280 922.687927,210.771240 924.096863,201.020828 
	C924.266113,199.849869 923.673035,198.501862 923.219727,197.317673 
	C911.973267,167.936279 900.697998,138.565872 889.263367,108.844681 
z"/>
<path fill="#060D7D" opacity="1.000000" stroke="none" 
	d="
M1105.865234,184.980957 
	C1105.869873,198.894821 1105.869873,198.894791 1092.558350,198.953766 
	C1089.227783,198.968521 1085.881836,198.788834 1082.570679,199.049591 
	C1078.757324,199.349854 1077.726318,197.725632 1077.730957,194.106201 
	C1077.754761,175.789383 1077.726685,157.468948 1077.345215,139.157516 
	C1077.239502,134.081482 1076.684448,128.717850 1074.895142,124.036789 
	C1071.363525,114.798096 1061.964722,110.400894 1052.033447,112.285667 
	C1042.113892,114.168213 1035.059937,122.001694 1034.815063,132.652237 
	C1034.356079,152.624741 1034.376953,172.608612 1034.244263,192.588058 
	C1034.201660,199.001465 1034.267944,199.013153 1027.968628,199.014816 
	C1021.973572,199.016403 1015.976196,198.887878 1009.984436,199.020920 
	C1006.960388,199.088058 1005.900085,197.938812 1005.904480,194.924240 
	C1005.952942,161.618423 1005.949890,128.312317 1005.828003,95.006775 
	C1005.815186,91.517113 1007.343445,90.762085 1010.354004,90.821068 
	C1016.180298,90.935219 1022.020264,91.060989 1027.835693,90.783928 
	C1031.958252,90.587524 1033.676270,92.053024 1033.331421,96.194275 
	C1033.183472,97.970421 1033.532715,99.787987 1033.737793,102.777267 
	C1038.652466,96.194283 1044.017578,91.873062 1051.108276,89.843132 
	C1073.467407,83.442131 1098.512573,93.334282 1103.747192,120.685478 
	C1105.021606,127.344307 1105.463989,134.227859 1105.613403,141.022949 
	C1105.932007,155.505005 1105.807983,169.996811 1105.865234,184.980957 
z"/>
<path fill="#070E7C" opacity="1.000000" stroke="none" 
	d="
M1171.184204,177.533875 
	C1183.238770,177.966827 1191.738281,173.777100 1195.283081,161.926941 
	C1195.574463,160.953323 1197.010254,159.661209 1197.937866,159.641861 
	C1206.399292,159.465195 1214.865723,159.538101 1223.944214,159.538101 
	C1223.081299,170.223694 1219.413574,179.190582 1212.226074,186.221085 
	C1195.506958,202.574722 1175.294434,204.522919 1154.223511,197.657761 
	C1133.822266,191.010864 1123.986816,174.951309 1121.515747,154.470123 
	C1119.757446,139.895432 1121.072266,125.414581 1129.026978,112.434509 
	C1140.561768,93.612740 1158.320068,86.770401 1179.335938,88.326408 
	C1198.888184,89.774048 1213.683105,99.245728 1221.304077,118.048325 
	C1222.771606,121.669189 1223.419067,125.622490 1224.728149,130.472260 
	C1215.257324,130.472260 1206.687012,130.543015 1198.122437,130.356293 
	C1197.318604,130.338776 1196.213135,128.826218 1195.817261,127.790207 
	C1191.562500,116.656227 1185.327026,112.471977 1172.928101,112.605988 
	C1163.255005,112.710541 1153.942017,119.252716 1151.024048,128.672867 
	C1147.752563,139.234558 1147.790039,150.049728 1150.714722,160.671127 
	C1153.471069,170.680466 1160.279053,176.380341 1171.184204,177.533875 
z"/>
<path fill="#060D7D" opacity="1.000000" stroke="none" 
	d="
M314.317810,96.942657 
	C320.079437,99.377281 325.723694,101.610191 330.897095,104.645622 
	C333.107880,105.942749 334.336792,108.913300 336.023010,111.499710 
	C335.517700,111.831902 335.001282,111.787842 333.842163,111.427383 
	C331.499359,111.261833 329.799255,111.412689 328.099152,111.563538 
	C318.873627,113.630096 313.120056,119.250191 310.310181,128.728241 
	C309.339600,129.404800 308.899414,129.779114 308.459229,130.153442 
	C308.996429,130.442459 309.533661,130.731491 310.070862,131.020523 
	C310.010681,132.095490 309.950470,133.170441 309.417175,134.744202 
	C309.101288,137.491394 309.258514,139.739807 309.415710,141.988220 
	C309.503845,142.445587 309.591980,142.902954 309.204926,143.851654 
	C308.488770,144.933929 308.039032,145.524277 308.037415,146.115860 
	C307.996918,160.782211 307.977753,175.448883 308.062225,190.114853 
	C308.067719,191.072006 308.932587,192.024200 309.397705,192.978683 
	C310.518829,197.130951 309.427673,199.264618 304.628876,199.050705 
	C298.490204,198.777039 292.328369,198.857162 286.181580,199.000320 
	C283.104584,199.071960 281.576965,198.197037 281.583191,194.821762 
	C281.644501,161.576584 281.633636,128.331223 281.588226,95.085983 
	C281.584198,92.141304 282.694458,90.873413 285.715729,90.940681 
	C291.364624,91.066444 297.027252,91.161354 302.667236,90.901619 
	C306.700989,90.715851 308.584991,92.079903 308.224243,96.248734 
	C308.058441,98.164825 308.196014,100.107155 308.196014,103.306038 
	C310.763153,100.550613 312.386475,98.808250 314.317810,96.942657 
z"/>
<path fill="#0A117F" opacity="1.000000" stroke="none" 
	d="
M720.225098,157.999969 
	C720.248230,137.014587 720.356384,116.528618 720.216614,96.044342 
	C720.190247,92.184570 721.246094,90.625404 725.270752,90.801872 
	C731.255005,91.064255 737.260925,90.946129 743.254578,90.830154 
	C746.056580,90.775948 747.547180,91.459625 747.545105,94.691719 
	C747.523621,128.168167 747.597412,161.644699 747.678955,195.121109 
	C747.685364,197.739502 746.881714,199.117874 743.943604,199.050308 
	C737.451355,198.900986 730.951721,198.888809 724.459167,199.020508 
	C721.121338,199.088211 720.171326,197.601639 720.198914,194.474579 
	C720.304810,182.483902 720.231018,170.491653 720.225098,157.999969 
z"/>
<path fill="#67686A" opacity="1.000000" stroke="none" 
	d="
M283.045868,284.003693 
	C283.045868,268.625885 283.045868,253.248093 283.045868,237.280518 
	C290.623322,237.280518 297.852570,237.280518 305.593872,237.668472 
	C306.733582,238.048965 307.361237,238.041504 307.988922,238.034058 
	C318.145233,239.213806 326.074432,247.132324 327.168060,257.187286 
	C328.568054,270.059479 322.878845,281.425812 312.069427,283.695160 
	C303.275726,285.541260 293.959991,284.900757 284.351868,285.014221 
	C283.567291,284.444916 283.306580,284.224304 283.045868,284.003693 
M292.378204,246.032806 
	C292.423340,246.696350 292.468475,247.359909 292.726959,248.745956 
	C292.664612,249.489868 292.602264,250.233795 291.837463,251.271301 
	C291.662537,257.916412 291.473480,264.561249 291.364410,271.207458 
	C291.360077,271.472931 292.114868,271.750854 292.728271,272.866943 
	C292.347382,276.182220 293.938660,277.233154 297.086212,276.995483 
	C299.709808,276.797363 302.363892,277.002319 305.135681,277.748108 
	C308.388641,277.293274 312.020264,277.540009 314.729614,276.077850 
	C316.020935,275.380981 315.558380,271.434296 315.966644,268.134338 
	C319.659119,253.965576 313.903656,246.269394 299.398895,245.998016 
	C297.243256,245.957687 295.086426,245.981476 292.378204,246.032806 
z"/>
<path fill="#707273" opacity="1.000000" stroke="none" 
	d="
M633.490967,285.746704 
	C626.336792,287.375366 620.456421,285.862640 616.307922,280.088226 
	C611.572144,273.496368 611.635437,266.319641 615.217224,259.303284 
	C618.117004,253.622818 623.118469,250.630371 629.520325,251.257751 
	C632.835205,251.582611 636.024597,253.187668 639.722656,254.357300 
	C639.722656,248.377167 639.722656,242.180908 639.722656,235.885941 
	C641.006470,235.604034 641.783691,235.315613 642.572693,235.278519 
	C649.768677,234.940201 649.800659,234.952942 649.811523,241.989777 
	C649.833496,256.261780 649.818054,270.533844 649.818054,285.200134 
	C645.922546,284.898132 641.804871,287.652161 639.323364,282.551361 
	C637.579773,283.536377 635.718689,284.587769 633.490967,285.746704 
M629.115295,277.701263 
	C635.723572,278.214905 639.871521,275.029816 640.066284,269.292206 
	C640.255432,263.722839 636.336304,259.508270 631.052856,259.617279 
	C626.517395,259.710907 624.129395,262.468292 623.055054,266.473297 
	C621.775818,271.242493 623.624695,274.816650 629.115295,277.701263 
z"/>
<path fill="#6D6E6F" opacity="1.000000" stroke="none" 
	d="
M483.337280,284.678711 
	C477.326111,287.137817 471.940918,286.822296 468.346466,284.139252 
	C463.503967,284.906769 459.920868,285.474670 455.798462,286.128052 
	C455.798462,268.907654 455.798462,252.657745 455.798462,235.949844 
	C458.752350,235.949844 461.641876,235.949844 465.259949,235.949844 
	C465.259949,242.006363 465.259949,247.905945 465.259949,254.909561 
	C471.474701,250.995163 477.324219,249.615173 482.877869,252.740219 
	C485.871033,254.424454 488.639099,257.397552 490.266235,260.451202 
	C494.842194,269.038849 491.896454,278.843170 483.337280,284.678711 
M482.086975,271.021729 
	C482.560486,264.632690 480.674469,261.101746 476.169037,259.942383 
	C471.303497,258.690338 467.009583,260.991913 465.526703,265.646759 
	C464.068695,270.223602 466.132660,275.114349 470.287506,276.927917 
	C475.072479,279.016541 479.126526,277.242584 482.086975,271.021729 
z"/>
<path fill="#727374" opacity="1.000000" stroke="none" 
	d="
M676.169800,254.002182 
	C676.169434,249.175400 676.266968,244.844940 676.126892,240.522171 
	C676.044128,237.970032 676.941589,236.902878 679.562683,236.962067 
	C686.050903,237.108551 692.563416,236.782028 699.028503,237.211746 
	C708.924316,237.869461 714.344177,244.020111 713.998169,253.523880 
	C713.746521,260.436310 710.063843,265.290833 703.253296,266.638000 
	C699.388855,267.402435 695.301758,267.540894 691.360718,267.277222 
	C687.486633,267.018005 686.342102,268.376160 686.553101,272.049866 
	C686.798462,276.321625 686.610474,280.618256 686.610474,285.251953 
	C683.003418,285.251953 679.928894,285.251953 676.167725,285.251953 
	C676.167725,274.982941 676.167725,264.742340 676.169800,254.002182 
M686.350037,256.951416 
	C689.346558,261.179382 693.655945,258.558136 697.317444,258.844788 
	C700.984253,259.131805 703.146362,256.424438 703.580383,252.981964 
	C704.040161,249.335617 701.922546,246.997131 698.484863,246.007233 
	C688.657288,243.177353 686.043274,245.132584 686.222778,255.060410 
	C686.228821,255.393127 686.239624,255.725769 686.350037,256.951416 
z"/>
<path fill="#6F7172" opacity="1.000000" stroke="none" 
	d="
M422.167511,243.430054 
	C422.159454,247.660110 422.159454,251.441620 422.159454,254.293625 
	C426.852356,253.315613 431.349915,251.566254 435.810913,251.655014 
	C441.335999,251.764984 445.315216,255.690704 445.693024,261.177399 
	C446.237274,269.081543 445.832092,277.051056 445.832092,285.076416 
	C445.668182,285.179626 445.407227,285.479309 445.122925,285.503357 
	C436.311432,286.249146 436.330475,286.245056 436.369354,277.647949 
	C436.385162,274.153656 436.261597,270.658844 436.263641,267.164337 
	C436.266113,262.923981 434.725555,260.028534 430.030792,259.820343 
	C426.033386,259.643097 422.870941,262.384094 422.640991,266.942993 
	C422.340393,272.902008 422.567352,278.887604 422.567352,285.274323 
	C418.988953,285.274323 416.100800,285.274323 412.707153,285.274323 
	C412.707153,268.912018 412.707153,252.526917 412.707153,236.087418 
	C421.245880,233.440598 422.797394,234.543259 422.167511,243.430054 
z"/>
<path fill="#6F7172" opacity="1.000000" stroke="none" 
	d="
M754.670898,256.366150 
	C754.666626,266.122253 754.666626,275.421478 754.666626,284.954010 
	C750.561951,285.550507 746.773560,286.630096 743.149170,283.526703 
	C735.738525,288.195587 727.409973,287.989838 721.287292,280.325653 
	C715.778015,273.429382 716.559021,262.105530 722.473572,255.893463 
	C728.236328,249.840790 736.080261,249.352600 743.692688,254.602707 
	C745.443054,250.015396 749.393982,251.493698 752.601318,251.757462 
	C753.401001,251.823227 753.989563,254.456207 754.670898,256.366150 
M728.327576,272.644592 
	C731.244385,277.669373 735.343201,279.301605 739.848694,277.232513 
	C743.844666,275.397430 745.856384,270.752380 744.575623,266.317688 
	C743.216125,261.610138 739.374329,259.095459 734.758362,259.891693 
	C730.306030,260.659637 727.557434,264.572510 727.764343,269.891083 
	C727.790039,270.550049 727.956665,271.203583 728.327576,272.644592 
z"/>
<path fill="#6F7070" opacity="1.000000" stroke="none" 
	d="
M369.930725,271.991333 
	C369.931946,276.466003 369.931946,280.442261 369.931946,285.581726 
	C366.009705,285.093719 362.449371,284.650757 358.889038,284.207794 
	C350.675629,287.916473 342.797272,287.314819 337.519501,281.088898 
	C331.611633,274.119659 331.684113,263.264679 337.685547,256.219421 
	C342.983185,250.000397 351.098633,249.377502 357.648285,253.542297 
	C362.340942,252.665176 365.666107,252.043655 369.929504,251.246765 
	C369.929504,258.647766 369.929504,265.070343 369.930725,271.991333 
M360.038879,271.040039 
	C360.005219,269.550323 360.258179,267.984100 359.884552,266.585175 
	C358.728851,262.257629 356.001465,259.681549 351.272858,259.772827 
	C347.114777,259.853088 343.938019,262.813843 343.213287,267.250916 
	C342.461548,271.853333 344.999359,276.216766 349.200195,277.544495 
	C353.667816,278.956604 357.038910,277.156281 360.038879,271.040039 
z"/>
<path fill="#6C6E70" opacity="1.000000" stroke="none" 
	d="
M540.937378,271.590149 
	C539.269226,258.272827 548.710266,250.447891 557.109253,251.222992 
	C560.280457,251.515656 563.349792,252.912781 565.158691,253.431610 
	C569.576660,252.678772 573.096802,252.078934 577.156189,251.387192 
	C577.156189,263.100891 577.156189,273.849121 577.156189,285.640869 
	C573.594666,285.264709 570.097656,284.895386 566.600647,284.526031 
	C556.904175,289.635681 543.680481,286.053406 540.937378,271.590149 
M551.526184,264.173981 
	C549.497986,269.498596 550.315796,273.692078 553.868896,276.186737 
	C557.823608,278.963409 562.886536,278.280182 565.893188,274.564148 
	C569.042725,270.671478 568.479858,264.826355 564.642700,261.578003 
	C561.065796,258.549988 556.065552,259.316193 551.526184,264.173981 
z"/>
<path fill="#091080" opacity="1.000000" stroke="none" 
	d="
M744.666870,52.340946 
	C750.999817,60.138374 751.285156,67.793274 745.745544,74.366325 
	C740.731567,80.315521 732.256409,81.816292 725.394775,77.969955 
	C717.331665,73.450142 714.675476,62.762314 719.698914,55.051239 
	C725.257385,46.518867 735.818665,45.253899 744.666870,52.340946 
z"/>
<path fill="#717273" opacity="1.000000" stroke="none" 
	d="
M809.553711,280.393188 
	C804.092407,272.180695 804.030701,264.800079 809.133667,257.865021 
	C813.508057,251.920059 821.873962,249.499557 829.875305,251.863785 
	C838.456238,254.399277 842.602234,261.855682 840.640198,272.151733 
	C832.590515,272.151733 824.388916,272.151733 815.992126,272.151733 
	C817.841675,277.907867 822.945190,279.841125 828.551086,277.516144 
	C833.937500,275.282166 833.937500,275.282196 838.781555,278.655792 
	C835.087280,288.274139 819.942139,289.327118 809.553711,280.393188 
M831.721985,263.219849 
	C829.386353,258.762787 825.321838,257.981171 821.132080,259.166901 
	C818.949585,259.784576 817.247864,262.101105 815.328979,263.650269 
	C815.672180,264.372864 816.015381,265.095490 816.358582,265.818085 
	C821.527649,265.227997 826.696716,264.637939 831.721985,263.219849 
z"/>
<path fill="#6F7172" opacity="1.000000" stroke="none" 
	d="
M774.492554,266.971802 
	C774.434448,273.204224 774.434448,279.015259 774.434448,285.198486 
	C770.778137,285.198486 767.723999,285.198486 764.359253,285.198486 
	C764.359253,274.219940 764.359253,263.476318 764.359253,252.255203 
	C768.152832,252.262314 772.297729,249.719437 774.980408,255.057098 
	C776.211975,254.243835 777.361694,253.322510 778.645813,252.662750 
	C787.477783,248.125214 796.968384,253.022598 797.670349,262.874237 
	C798.188171,270.141266 797.772034,277.474823 797.772034,285.141357 
	C794.633789,285.141357 791.732544,285.141357 788.100159,285.141357 
	C788.100159,279.534180 788.063599,274.101074 788.112244,268.668793 
	C788.148254,264.644684 787.974060,260.689606 782.873352,259.907379 
	C777.861389,259.138733 775.603333,262.174896 774.492554,266.971802 
z"/>
<path fill="#6A6C6D" opacity="1.000000" stroke="none" 
	d="
M516.009644,285.970856 
	C505.761353,285.990784 498.110016,279.010101 497.835419,269.389618 
	C497.558594,259.691589 504.473175,251.900467 513.997864,251.178284 
	C524.933838,250.349091 533.869690,256.693115 534.944336,266.049286 
	C536.166870,276.693329 529.909119,284.453918 518.237915,285.802979 
	C517.133606,285.664185 516.571594,285.817505 516.009644,285.970856 
M518.099060,259.827606 
	C512.187073,259.805695 507.698792,262.941589 507.088196,267.520782 
	C506.442017,272.366974 509.341797,276.385712 514.404358,277.660126 
	C518.884583,278.787994 523.353394,276.366455 524.719666,272.070496 
	C526.347656,266.951691 524.216675,262.520691 518.099060,259.827606 
z"/>
<path fill="#0A1280" opacity="1.000000" stroke="none" 
	d="
M236.767120,25.507126 
	C236.886536,34.409760 233.451416,39.798473 226.410828,42.230183 
	C220.457077,44.286518 213.811996,42.302345 209.840118,37.282291 
	C205.746964,32.108940 205.450668,24.718599 209.259491,19.104795 
	C212.785660,13.907573 217.847778,11.801125 223.967468,12.743248 
	C231.025406,13.829814 235.048340,18.319122 236.767120,25.507126 
z"/>
<path fill="#727373" opacity="1.000000" stroke="none" 
	d="
M404.465027,257.744263 
	C401.452698,260.679718 398.739075,262.586975 394.990662,259.044830 
	C393.964691,258.075287 391.464172,258.248810 389.766571,258.568451 
	C388.794647,258.751404 387.660767,260.183838 387.403656,261.247925 
	C387.253937,261.867706 388.540314,263.302429 389.444397,263.620605 
	C392.098419,264.554626 394.896912,265.069061 397.616119,265.829010 
	C402.433350,267.175293 405.647583,270.133514 405.550629,275.350342 
	C405.457550,280.359619 402.566742,283.633911 397.853485,285.313019 
	C390.048523,288.093506 381.033478,285.647522 376.581268,279.114319 
	C378.698212,277.676483 380.817932,276.236786 382.037170,275.408661 
	C386.125183,276.682770 389.255737,277.916718 392.503326,278.512817 
	C393.473877,278.690918 394.771912,277.084961 395.919891,276.296417 
	C395.026886,275.260956 394.330139,273.735565 393.203186,273.284180 
	C390.135620,272.055542 386.804169,271.488464 383.729980,270.273071 
	C380.054108,268.819794 377.902374,266.092834 377.795074,261.888000 
	C377.683655,257.521332 379.777527,254.657425 383.430664,252.673508 
	C389.183899,249.549057 401.936798,250.404221 404.465027,257.744263 
z"/>
<path fill="#717375" opacity="1.000000" stroke="none" 
	d="
M858.830444,272.973328 
	C858.828735,277.113159 858.828735,280.758850 858.828735,285.158691 
	C855.497314,285.309265 852.487854,285.445312 849.136353,285.596802 
	C849.136353,268.704712 849.136353,252.328751 849.136353,235.522583 
	C852.198730,235.522583 855.219055,235.522583 858.832153,235.522583 
	C858.832153,247.970840 858.832153,260.225037 858.830444,272.973328 
z"/>
<path fill="#717374" opacity="1.000000" stroke="none" 
	d="
M587.008179,276.935974 
	C587.007446,268.490570 587.007446,260.536316 587.007446,252.675339 
	C594.183838,251.163651 595.652710,251.566177 596.976868,254.198364 
	C600.948853,253.229080 604.608948,252.335922 608.268921,251.442780 
	C608.861084,254.142914 609.453186,256.843018 610.157837,260.056152 
	C607.930176,260.056152 606.808350,260.051575 605.686462,260.056946 
	C599.811523,260.084991 597.081848,262.664246 596.985413,268.502167 
	C596.895203,273.958801 596.966125,279.418060 596.966125,285.246399 
	C593.502075,285.246399 590.590210,285.246399 587.008972,285.246399 
	C587.008972,282.624817 587.008972,280.025940 587.008179,276.935974 
z"/>
<path fill="#0B0C74" opacity="1.000000" stroke="none" 
	d="
M222.082489,227.633209 
	C221.635300,224.916397 221.077576,221.845001 221.119980,218.781921 
	C221.179291,214.496368 221.947281,210.217728 221.959061,205.934891 
	C222.039597,176.663635 221.995926,147.392044 222.015152,118.120560 
	C222.016342,116.305679 222.211319,114.490921 222.583878,112.364883 
	C223.032547,114.356667 223.365555,116.659294 223.371368,118.962738 
	C223.449249,149.769073 223.542755,180.575684 223.466171,211.381805 
	C223.453003,216.682968 222.668137,221.982224 222.082489,227.633209 
z"/>
<path fill="#01036A" opacity="1.000000" stroke="none" 
	d="
M309.523621,192.527161 
	C308.932587,192.024200 308.067719,191.072006 308.062225,190.114853 
	C307.977753,175.448883 307.996918,160.782211 308.037415,146.115860 
	C308.039032,145.524277 308.488770,144.933929 309.066345,144.179672 
	C309.485168,160.036118 309.567352,176.055878 309.523621,192.527161 
z"/>
<path fill="#0B0C74" opacity="1.000000" stroke="none" 
	d="
M217.873688,244.024139 
	C217.538040,243.108002 217.053619,241.826508 217.357162,240.771774 
	C218.389557,237.184372 219.700043,233.676987 221.251801,230.059296 
	C220.428177,234.573944 219.257095,239.168320 217.873688,244.024139 
z"/>
<path fill="#0B0C74" opacity="1.000000" stroke="none" 
	d="
M211.397110,258.098450 
	C212.902176,253.870163 214.714081,249.478531 216.902069,245.036453 
	C215.420074,249.302368 213.562012,253.618729 211.397110,258.098450 
z"/>
<path fill="#0B0C74" opacity="1.000000" stroke="none" 
	d="
M222.776718,109.601166 
	C222.087082,107.411018 221.495193,104.815697 221.173492,102.102722 
	C221.920609,104.388710 222.397522,106.792343 222.776718,109.601166 
z"/>
<path fill="#0B0C74" opacity="1.000000" stroke="none" 
	d="
M221.232117,100.671768 
	C220.386139,98.725769 219.608917,96.442749 219.148743,93.986595 
	C220.077484,95.987221 220.689178,98.160988 221.232117,100.671768 
z"/>
<path fill="#01036A" opacity="1.000000" stroke="none" 
	d="
M309.541870,141.567047 
	C309.258514,139.739807 309.101288,137.491394 309.276245,135.125641 
	C309.628296,137.054169 309.648132,139.100021 309.541870,141.567047 
z"/>
<path fill="#070E7F" opacity="1.000000" stroke="none" 
	d="
M328.500916,111.653221 
	C329.799255,111.412689 331.499359,111.261833 333.495117,111.241203 
	C332.161377,111.495247 330.532013,111.619072 328.500916,111.653221 
z"/>
<path fill="#707274" opacity="1.000000" stroke="none" 
	d="
M307.781494,237.844360 
	C307.361237,238.041504 306.733582,238.048965 306.038513,237.813721 
	C306.505463,237.598892 307.039764,237.626785 307.781494,237.844360 
z"/>
<path fill="#01036A" opacity="1.000000" stroke="none" 
	d="
M310.256104,130.707367 
	C309.533661,130.731491 308.996429,130.442459 308.459229,130.153442 
	C308.899414,129.779114 309.339600,129.404800 310.116394,128.996933 
	C310.449097,129.440323 310.445221,129.917282 310.256104,130.707367 
z"/>
<path fill="#737577" opacity="1.000000" stroke="none" 
	d="
M516.171448,286.133728 
	C516.571594,285.817505 517.133606,285.664185 517.839478,285.731934 
	C517.433289,286.067535 516.883301,286.182068 516.171448,286.133728 
z"/>
<path fill="#0B0C74" opacity="1.000000" stroke="none" 
	d="
M210.189575,260.386658 
	C210.103806,260.302734 210.142776,260.280945 210.132660,260.270233 
	C210.122528,260.259521 210.275330,260.470581 210.189575,260.386658 
z"/>
<path fill="#707274" opacity="1.000000" stroke="none" 
	d="
M283.018433,284.313202 
	C283.306580,284.224304 283.567291,284.444916 283.918427,284.910461 
	C283.669586,284.977814 283.330292,284.800262 283.018433,284.313202 
z"/>
<path fill="#FAFAFC" opacity="1.000000" stroke="none" 
	d="
M64.011124,186.128250 
	C60.183010,186.147095 56.847572,186.280945 53.522720,186.148727 
	C47.562267,185.911758 44.262566,182.743332 44.084877,176.779419 
	C43.881630,169.957504 43.913372,163.123840 44.031250,156.298523 
	C44.142372,149.864243 47.492905,146.428818 53.927425,146.355927 
	C66.249680,146.216324 78.574471,146.315460 90.898094,146.277817 
	C97.420326,146.257889 99.162979,144.517120 99.193970,138.010483 
	C99.251877,125.853424 99.229073,113.695877 99.317375,101.539101 
	C99.371361,94.106331 102.505516,91.023109 110.028839,90.962212 
	C116.023430,90.913681 122.019928,90.964890 128.014267,91.057320 
	C135.475494,91.172371 138.512299,94.166687 138.582077,101.802696 
	C138.693161,113.958900 138.610504,126.116798 138.628265,138.273956 
	C138.637451,144.557861 140.352203,146.363022 146.563843,146.384384 
	C158.554321,146.425644 170.545410,146.326019 182.535645,146.391571 
	C190.769745,146.436569 193.960098,149.652939 194.058899,157.899811 
	C194.132721,164.060593 194.145126,170.225082 194.017609,176.384460 
	C193.881516,182.958878 190.690323,186.133102 184.076813,186.170273 
	C171.586975,186.240479 159.096283,186.135254 146.606003,186.152893 
	C140.438049,186.161606 138.606918,188.034058 138.603989,194.223724 
	C138.597992,206.880493 138.675217,219.537521 138.615326,232.193954 
	C138.578049,240.072601 135.937057,242.704163 128.152237,242.817154 
	C122.324371,242.901764 116.494621,242.917694 110.666153,242.885239 
	C102.521912,242.839874 99.407799,239.823608 99.369476,231.801346 
	C99.309822,219.311401 99.399445,206.820740 99.341209,194.330780 
	C99.310730,187.792923 97.542290,186.077332 90.986954,186.061081 
	C82.160927,186.039215 73.334709,186.098770 64.011124,186.128250 
z"/>
<path fill="#F6F7FA" opacity="1.000000" stroke="none" 
	d="
M111.131760,56.996910 
	C105.114540,52.109055 103.224281,45.648754 105.790825,39.515144 
	C108.243774,33.652988 114.701202,30.039749 121.192253,30.897303 
	C127.331894,31.708429 132.345779,36.712437 133.373108,43.054161 
	C134.388351,49.321243 131.089920,55.440956 125.235222,58.154922 
	C120.461586,60.367764 115.874359,59.819263 111.131760,56.996910 
z"/>
<path fill="#FBFBFC" opacity="1.000000" stroke="none" 
	d="
M624.118835,117.017334 
	C642.760437,105.016052 663.815247,114.780876 666.512329,136.755371 
	C667.329834,143.415390 666.935730,150.428055 665.846741,157.074417 
	C663.772156,169.735962 654.760071,177.149887 642.078491,177.798660 
	C628.685425,178.483841 618.316650,172.140213 614.860535,159.942947 
	C611.394226,147.709671 610.878357,135.306259 617.852234,123.828766 
	C619.366638,121.336334 621.797119,119.400528 624.118835,117.017334 
z"/>
<path fill="#F7F7F9" opacity="1.000000" stroke="none" 
	d="
M533.949890,133.900726 
	C520.191956,133.901505 506.927704,133.901505 493.686493,133.901505 
	C492.900085,121.839645 503.823669,112.067436 518.020691,111.797440 
	C532.783936,111.516670 543.079224,120.500084 542.816711,133.899933 
	C540.034973,133.899933 537.239319,133.899933 533.949890,133.900726 
z"/>
<path fill="#F9FAFB" opacity="1.000000" stroke="none" 
	d="
M292.539948,250.977707 
	C292.602264,250.233795 292.664612,249.489868 292.769592,248.063690 
	C292.851562,246.912827 292.890839,246.444214 292.930115,245.975586 
	C295.086426,245.981476 297.243256,245.957687 299.398895,245.998016 
	C313.903656,246.269394 319.659119,253.965576 315.662720,268.746490 
	C311.907349,271.915344 308.455902,274.472046 305.004456,277.028748 
	C302.363892,277.002319 299.709808,276.797363 297.086212,276.995483 
	C293.938660,277.233154 292.347382,276.182220 292.752045,271.990967 
	C292.697205,264.402588 292.618591,257.690155 292.539948,250.977707 
z"/>
<path fill="#707274" opacity="1.000000" stroke="none" 
	d="
M305.070068,277.388428 
	C308.455902,274.472046 311.907349,271.915344 315.624542,269.159149 
	C315.558380,271.434296 316.020935,275.380981 314.729614,276.077850 
	C312.020264,277.540009 308.388641,277.293274 305.070068,277.388428 
z"/>
<path fill="#707274" opacity="1.000000" stroke="none" 
	d="
M292.188721,251.124512 
	C292.618591,257.690155 292.697205,264.402588 292.645874,271.569000 
	C292.114868,271.750854 291.360077,271.472931 291.364410,271.207458 
	C291.473480,264.561249 291.662537,257.916412 292.188721,251.124512 
z"/>
<path fill="#707274" opacity="1.000000" stroke="none" 
	d="
M292.654175,246.004211 
	C292.890839,246.444214 292.851562,246.912827 292.662903,247.702454 
	C292.468475,247.359909 292.423340,246.696350 292.654175,246.004211 
z"/>
<path fill="#F7F8F8" opacity="1.000000" stroke="none" 
	d="
M628.744324,277.559906 
	C623.624695,274.816650 621.775818,271.242493 623.055054,266.473297 
	C624.129395,262.468292 626.517395,259.710907 631.052856,259.617279 
	C636.336304,259.508270 640.255432,263.722839 640.066284,269.292206 
	C639.871521,275.029816 635.723572,278.214905 628.744324,277.559906 
z"/>
<path fill="#F7F7F7" opacity="1.000000" stroke="none" 
	d="
M482.009888,271.426941 
	C479.126526,277.242584 475.072479,279.016541 470.287506,276.927917 
	C466.132660,275.114349 464.068695,270.223602 465.526703,265.646759 
	C467.009583,260.991913 471.303497,258.690338 476.169037,259.942383 
	C480.674469,261.101746 482.560486,264.632690 482.009888,271.426941 
z"/>
<path fill="#F5F5F6" opacity="1.000000" stroke="none" 
	d="
M686.299133,256.504944 
	C686.239624,255.725769 686.228821,255.393127 686.222778,255.060410 
	C686.043274,245.132584 688.657288,243.177353 698.484863,246.007233 
	C701.922546,246.997131 704.040161,249.335617 703.580383,252.981964 
	C703.146362,256.424438 700.984253,259.131805 697.317444,258.844788 
	C693.655945,258.558136 689.346558,261.179382 686.299133,256.504944 
z"/>
<path fill="#F7F8F8" opacity="1.000000" stroke="none" 
	d="
M728.192810,272.252106 
	C727.956665,271.203583 727.790039,270.550049 727.764343,269.891083 
	C727.557434,264.572510 730.306030,260.659637 734.758362,259.891693 
	C739.374329,259.095459 743.216125,261.610138 744.575623,266.317688 
	C745.856384,270.752380 743.844666,275.397430 739.848694,277.232513 
	C735.343201,279.301605 731.244385,277.669373 728.192810,272.252106 
z"/>
<path fill="#F6F6F6" opacity="1.000000" stroke="none" 
	d="
M359.962463,271.438904 
	C357.038910,277.156281 353.667816,278.956604 349.200195,277.544495 
	C344.999359,276.216766 342.461548,271.853333 343.213287,267.250916 
	C343.938019,262.813843 347.114777,259.853088 351.272858,259.772827 
	C356.001465,259.681549 358.728851,262.257629 359.884552,266.585175 
	C360.258179,267.984100 360.005219,269.550323 359.962463,271.438904 
z"/>
<path fill="#F6F6F6" opacity="1.000000" stroke="none" 
	d="
M551.736328,263.848724 
	C556.065552,259.316193 561.065796,258.549988 564.642700,261.578003 
	C568.479858,264.826355 569.042725,270.671478 565.893188,274.564148 
	C562.886536,278.280182 557.823608,278.963409 553.868896,276.186737 
	C550.315796,273.692078 549.497986,269.498596 551.736328,263.848724 
z"/>
<path fill="#F5F5F5" opacity="1.000000" stroke="none" 
	d="
M831.793945,263.633850 
	C826.696716,264.637939 821.527649,265.227997 816.358582,265.818085 
	C816.015381,265.095490 815.672180,264.372864 815.328979,263.650269 
	C817.247864,262.101105 818.949585,259.784576 821.132080,259.166901 
	C825.321838,257.981171 829.386353,258.762787 831.793945,263.633850 
z"/>
<path fill="#F5F5F5" opacity="1.000000" stroke="none" 
	d="
M518.504272,259.908386 
	C524.216675,262.520691 526.347656,266.951691 524.719666,272.070496 
	C523.353394,276.366455 518.884583,278.787994 514.404358,277.660126 
	C509.341797,276.385712 506.442017,272.366974 507.088196,267.520782 
	C507.698792,262.941589 512.187073,259.805695 518.504272,259.908386 
z"/>
</svg>